<svg id="Layer_1" viewBox="0 0 512 512" xmlns="http://www.w3.org/2000/svg" data-name="Layer 1"><path d="m448.161 288.706c-.005-.09-.011-.181-.018-.271-2.559-33.287-10.777-48.309-33.821-61.819-15.291-8.966-39.737-15.637-65.561-22.242-.037-.01-.074-.019-.112-.027l-44.015-10.827c7.845-6.102 15.003-13.704 21.184-22.658 23.362-33.846 27.598-80.5 10.302-113.454-14.858-28.311-43.312-43.901-80.121-43.901s-65.262 15.591-80.121 43.901c-17.296 32.954-13.06 79.608 10.302 113.454 6.181 8.955 13.339 16.557 21.183 22.659l-44.014 10.827c-.037.009-.074.019-.111.027-25.825 6.605-50.271 13.276-65.561 22.242-23.044 13.511-31.262 28.532-33.821 61.819-.007.09-.013.181-.018.271-3.137 56.957-1.671 109.392.177 153.172 1.341 31.748 27.282 56.617 59.058 56.617h265.854c31.775 0 57.717-24.869 59.058-56.617 1.848-43.78 3.313-96.215.177-153.172zm-163.938 93.614-28.223 39.535-28.223-39.535 23.847-171.348c1.461-.056 2.92-.093 4.376-.093s2.914.037 4.376.093zm-86.207-313.295c10.479-19.966 30.53-30.52 57.984-30.52s47.505 10.554 57.984 30.52c12.952 24.677 9.276 61.532-8.74 87.635-12.719 18.426-29.696 28.749-47.956 29.198-.863-.008-1.727-.008-2.59 0-18.237-.445-35.221-10.769-47.942-29.198-18.016-26.103-21.692-62.958-8.74-87.635zm224.991 371.798c-.774 18.32-15.744 32.672-34.08 32.672h-11.069v-131.178c0-6.903-5.597-12.5-12.5-12.5s-12.5 5.597-12.5 12.5v131.178h-193.716v-131.178c0-6.903-5.597-12.5-12.5-12.5s-12.5 5.597-12.5 12.5v131.178h-11.069c-18.336 0-33.306-14.352-34.08-32.672-1.821-43.145-3.268-94.77-.2-150.605 2.057-26.556 6.942-33.483 21.53-42.035 13.502-7.918 40.891-14.928 59.046-19.572l56.457-13.886c.012-.003.023-.005.035-.008l-23.533 169.09c-.44 3.167.349 6.383 2.207 8.985l41.29 57.84c2.346 3.286 6.136 5.237 10.174 5.237s7.828-1.951 10.174-5.237l41.29-57.84c1.858-2.603 2.647-5.818 2.207-8.985l-23.533-169.091c.012.003.023.005.035.008l56.458 13.887c18.155 4.645 45.543 11.654 59.046 19.572 14.587 8.552 19.473 15.479 21.529 42.035 3.068 55.836 1.621 107.461-.2 150.605z"/></svg>