<svg id="Capa_1" enable-background="new 0 0 512 512" height="512" viewBox="0 0 512 512" width="512" xmlns="http://www.w3.org/2000/svg"><g><path d="m437 239.5h-7.886c29.5-3.755 52.386-28.997 52.386-59.5 0-33.084-26.916-60-60-60s-60 26.916-60 60c0 30.503 22.886 55.745 52.386 59.5h-7.886c-16.871 0-32.456 5.603-45 15.041v-.041c0-41.355-33.645-75-75-75h-17.844c35.593-5.828 62.844-36.784 62.844-74 0-41.355-33.645-75-75-75s-75 33.645-75 75c0 37.216 27.251 68.172 62.844 74h-17.844c-41.355 0-75 33.645-75 75v.041c-12.544-9.438-28.129-15.041-45-15.041h-7.886c29.5-3.755 52.386-28.997 52.386-59.5 0-33.084-26.916-60-60-60s-60 26.916-60 60c0 30.503 22.886 55.745 52.386 59.5h-7.886c-41.355 0-75 33.645-75 75v152c0 8.284 6.716 15 15 15h482c8.284 0 15-6.716 15-15v-152c0-41.355-33.645-75-75-75zm-45.5-59.5c0-16.542 13.458-30 30-30s30 13.458 30 30-13.458 30-30 30-30-13.458-30-30zm-180.5-74.5c0-24.813 20.187-45 45-45s45 20.187 45 45-20.187 45-45 45-45-20.187-45-45zm-150.5 74.5c0-16.542 13.458-30 30-30s30 13.458 30 30-13.458 30-30 30-30-13.458-30-30zm208.438 114.767-12.938 13.801-12.938-13.802 12.938-38.739zm-238.938 19.733c0-24.813 20.187-45 45-45h1v76c0 8.284 6.716 15 15 15s15-6.716 15-15v-76c24.813 0 45 20.187 45 45v137h-121zm151 0v-60c0-24.813 20.187-45 45-45h13.91l-28.138 84.248c-1.746 5.228-.484 10.99 3.284 15.011l30 32c5.927 6.323 15.967 6.315 21.887 0l30-32c3.769-4.021 5.03-9.783 3.284-15.011l-28.137-84.248h13.91c24.813 0 45 20.187 45 45v60 137h-150zm301 137h-121v-137c0-24.813 20.187-45 45-45v76c0 8.284 6.716 15 15 15s15-6.716 15-15v-76h1c24.813 0 45 20.187 45 45z"/></g></svg>