<svg xmlns="http://www.w3.org/2000/svg" version="1.1" xmlns:xlink="http://www.w3.org/1999/xlink" width="512" height="512" x="0" y="0" viewBox="0 0 512 512.001" style="enable-background:new 0 0 512 512" xml:space="preserve" class=""><g><path d="M333.023 115.074v45.832l-85.718 85.719c-5.078 4.906-5.22 12.996-.317 18.074 4.907 5.074 12.996 5.215 18.075.313.105-.102.21-.207.312-.313l85.723-85.722h45.828c3.39 0 6.64-1.344 9.035-3.743l76.684-76.683c4.992-4.992 4.992-13.086 0-18.078a12.809 12.809 0 0 0-9.036-3.743h-38.34V38.39c-.003-7.058-5.726-12.777-12.785-12.777a12.792 12.792 0 0 0-9.035 3.742l-76.683 76.684a12.785 12.785 0 0 0-3.743 9.035zm0 0" fill="#ffffff" opacity="1" data-original="#000000" class=""></path><path d="M296.242 161.54c-52.004-22.063-112.043 2.214-134.105 54.218-22.063 52.004 2.215 112.047 54.218 134.105 52.004 22.063 112.047-2.21 134.106-54.218a102.257 102.257 0 0 0 0-79.887l-67.012 67.012c-14.758 15.187-39.031 15.539-54.219.785-15.187-14.758-15.539-39.032-.785-54.22.258-.265.52-.522.785-.78zm0 0" fill="#ffffff" opacity="1" data-original="#000000" class=""></path><path d="m481.824 135.523-38.242 38.239c45.438 103.617-1.723 224.449-105.34 269.886-103.613 45.438-224.445-1.726-269.887-105.34C22.918 234.692 70.082 113.86 173.7 68.423a204.848 204.848 0 0 1 164.543 0l38.235-38.246C251.757-36.36 96.715 10.805 30.18 135.523c-66.54 124.715-19.375 279.762 105.343 346.301 124.72 66.535 279.762 19.371 346.301-105.347 40.168-75.297 40.168-165.657 0-240.954zm0 0" fill="#ffffff" opacity="1" data-original="#000000" class=""></path><path d="M307.46 115.074a38.105 38.105 0 0 1 11.106-26.953c-92.93-34.766-196.445 12.383-231.214 105.313-34.766 92.93 12.382 196.445 105.312 231.214 92.93 34.766 196.445-12.382 231.215-105.312a179.648 179.648 0 0 0 0-125.902 38.088 38.088 0 0 1-26.953 11.105h-23.614c28.497 64.867-.984 140.55-65.851 169.047-64.863 28.5-140.55-.984-169.047-65.848-28.5-64.867.984-140.55 65.848-169.05a128.295 128.295 0 0 1 103.199 0zm0 0" fill="#ffffff" opacity="1" data-original="#000000" class=""></path></g></svg>