<svg width="17" height="10" viewBox="0 0 17 10" fill="none" xmlns="http://www.w3.org/2000/svg">
<path d="M7.68348 9.65461L4.07548 6.04629C3.7639 5.73472 3.7639 5.22977 4.07548 4.91844C4.38705 4.60687 4.8918 4.60687 5.20337 4.91844L7.68348 7.39846L14.8488 0.233672C15.1603 -0.0778905 15.6651 -0.0778905 15.9767 0.233672C16.2882 0.545009 16.2882 1.05018 15.9767 1.36152L7.68348 9.65461Z" fill="#1ED36A"/>
<path d="M7.38777 6.45542L12.1364 1.70683C12.448 1.39549 12.448 0.890315 12.1364 0.578978C11.8248 0.267416 11.3201 0.267416 11.0085 0.578978L6.25977 5.32743L7.38777 6.45542Z" fill="#1ED36A"/>
<path d="M4.48572 7.0998L3.84169 7.74379L1.36157 5.26376C1.05 4.9522 0.54525 4.9522 0.23368 5.26376C-0.0778934 5.5751 -0.0778934 6.08005 0.23368 6.39161L3.84169 9.99993L5.61376 8.2279L4.48572 7.0998Z" fill="#1ED36A"/>
</svg>
